Format                             : AVI
Format/Info                              : Audio Video Interleave
File size                                : 1.25 GiB
Duration                                 : 1h 32mn
Overall bit rate                         : 1 938 Kbps

Video
ID                                       : 0
Format                                   : MPEG-4 Visual
Format profile                           : Simple@L3
Format settings, BVOP                    : No
Format settings, QPel                    : No
Format settings, GMC                     : No warppoints
Format settings, Matrix                  : Default (H.263)
Codec ID                                 : XVID
Codec ID/Hint                            : XviD
Duration                                 : 1h 32mn
Source duration                          : 1h 32mn
Bit rate                                 : 1 797 Kbps
Width                                    : 640 pixels
Height                                   : 480 pixels
Display aspect ratio                     : 4:3
Frame rate                               : 25.000 fps
Color space                              : YUV
Chroma subsampling                       : 4:2:0
Bit depth                                : 8 bits
Scan type                                : Progressive
Compression mode                         : Lossy
Bits/(Pixel*Frame)                       : 0.234
Stream size                              : 1.16 GiB (93%)
Writing library                          : XviD 1.1.2 (UTC 2006-11-01)

Audio
ID                                       : 1
Format                                   : MPEG Audio
Format version                           : Version 1
Format profile                           : Layer 3
Mode                                     : Joint stereo
Mode extension                           : MS Stereo
Codec ID                                 : 55
Codec ID/Hint                            : MP3
Duration                                 : 1h 32mn
Bit rate mode                            : Constant
Bit rate                                 : 128 Kbps
Channel(s)                               : 2 channels
Sampling rate                            : 48.0 KHz
Compression mode                         : Lossy
Stream size                              : 84.6 MiB (7%)
Alignment                                : Split accross interleaves
Interleave, duration                     : 24 ms (0.60 video frame)
Writing library                          : LAME3.98

Today the term "indie film" is a bloated cliché, misapplied to any movie with a budget under $50 million and not too much CGI, regardless of how conventional and hackneyed the film is. To see really independent cinema you have to go back to the 60s and 70s, when revolutions in the technology allowed eccentrics and visionaries, working totally outside the industry and with virtually no money, to make truly unique movies. Folks like Warhol and Waters and Anger in the US, Herzog in Germany, and the team of Brownlow and Mollo in the UK. All very different from one another (and everyone else), which is part of what makes them authentic independents. Starting when they were just 18, Brownlow and Mollo made two extraordinary history-based films. First they spent eight years (and something like 20,000 pounds, minuscule even in 1970s currency) making "It Happened Here," a what-if fantasy about England occupied by the Nazis during World War II that looks so realistic you could be fooled it's a documentary if you're history-challenged. Then, with an equally tiny budget and fierce attention to detail, they made the true-to-history "Winstanley," about the proto-democracy (and proto-Quaker, and proto-hippie) revolt of the Diggers, Levellers and Ranters in 17th-century England. Again it looks so real it's like a documentary somehow shot in the 1640s, but it's also beautiful, poetic and philosophical in a kind of Herzogian way. They're both remarkable little films, unlike anything else, that should be remedial must-see's for anyone who likes or is involved in what's called indie film nowadays